<svg xmlns="http://www.w3.org/2000/svg" xmlns:xlink="http://www.w3.org/1999/xlink" width="2000" zoomAndPan="magnify" viewBox="0 0 1500 1499.999933" height="2000" preserveAspectRatio="xMidYMid meet" version="1.0"><defs><g/><clipPath id="1c0e63f3cc"><path d="M 392.058594 656.558594 L 574 656.558594 L 574 867.308594 L 392.058594 867.308594 Z M 392.058594 656.558594 " clip-rule="nonzero"/></clipPath><clipPath id="87091551ca"><path d="M 511 656.558594 L 692.808594 656.558594 L 692.808594 867.308594 L 511 867.308594 Z M 511 656.558594 " clip-rule="nonzero"/></clipPath><clipPath id="006ba2daa4"><rect x="0" width="352" y="0" height="198"/></clipPath><clipPath id="edbcb208cd"><rect x="0" width="204" y="0" height="82"/></clipPath></defs><g clip-path="url(#1c0e63f3cc)"><path fill="#000000" d="M 551.183594 737.527344 L 515.285156 792.871094 L 436.09375 656.589844 L 392.058594 658.132812 L 513.476562 867.078125 L 573.066406 775.191406 Z M 551.183594 737.527344 " fill-opacity="1" fill-rule="nonzero"/></g><g clip-path="url(#87091551ca)"><path fill="#000000" d="M 670.609375 737.527344 L 634.714844 792.871094 L 555.519531 656.589844 L 511.488281 658.132812 L 632.902344 867.078125 L 692.492188 775.191406 Z M 670.609375 737.527344 " fill-opacity="1" fill-rule="nonzero"/></g><g transform="matrix(1, 0, 0, 1, 674, 651)"><g clip-path="url(#006ba2daa4)"><g fill="#000000" fill-opacity="1"><g transform="translate(2.807372, 148.00697)"><g><path d="M 9.796875 -71.875 C 9.796875 -84.925781 13.085938 -97.128906 19.671875 -108.484375 C 26.265625 -119.847656 35.207031 -128.890625 46.5 -135.609375 C 57.800781 -142.335938 70.046875 -145.703125 83.234375 -145.703125 C 96.410156 -145.703125 108.644531 -142.335938 119.9375 -135.609375 C 131.238281 -128.890625 140.25 -119.847656 146.96875 -108.484375 C 153.6875 -97.128906 157.046875 -84.925781 157.046875 -71.875 C 157.046875 -58.550781 153.6875 -46.273438 146.96875 -35.046875 C 140.25 -23.828125 131.238281 -14.921875 119.9375 -8.328125 C 108.644531 -1.734375 96.410156 1.5625 83.234375 1.5625 C 69.910156 1.5625 57.632812 -1.734375 46.40625 -8.328125 C 35.175781 -14.921875 26.265625 -23.828125 19.671875 -35.046875 C 13.085938 -46.273438 9.796875 -58.550781 9.796875 -71.875 Z M 39.171875 -71.875 C 39.171875 -63.519531 41.160156 -55.816406 45.140625 -48.765625 C 49.117188 -41.710938 54.535156 -36.128906 61.390625 -32.015625 C 68.242188 -27.898438 75.847656 -25.84375 84.203125 -25.84375 C 92.296875 -25.84375 99.671875 -27.898438 106.328125 -32.015625 C 112.992188 -36.128906 118.21875 -41.675781 122 -48.65625 C 125.789062 -55.644531 127.6875 -63.382812 127.6875 -71.875 C 127.6875 -80.488281 125.726562 -88.316406 121.8125 -95.359375 C 117.894531 -102.410156 112.570312 -107.992188 105.84375 -112.109375 C 99.125 -116.222656 91.648438 -118.28125 83.421875 -118.28125 C 75.191406 -118.28125 67.71875 -116.222656 61 -112.109375 C 54.28125 -107.992188 48.960938 -102.410156 45.046875 -95.359375 C 41.128906 -88.316406 39.171875 -80.488281 39.171875 -71.875 Z M 39.171875 -71.875 "/></g></g></g><g fill="#000000" fill-opacity="1"><g transform="translate(153.755499, 148.00697)"><g><path d="M 138.453125 6.265625 L 104.1875 -79.109375 L 64.234375 6.65625 L 6.265625 -143.15625 L 39.5625 -143.15625 L 67.953125 -59.734375 L 89.890625 -114.75 L 78.53125 -143.15625 L 106.71875 -143.15625 L 139.03125 -63.0625 L 163.515625 -143.15625 L 194.0625 -143.15625 Z M 138.453125 6.265625 "/></g></g></g></g></g><g transform="matrix(1, 0, 0, 1, 750, 809)"><g clip-path="url(#edbcb208cd)"><g fill="#000000" fill-opacity="1"><g transform="translate(-0.00003125, 62.044178)"><g><path d="M 30.953125 -40.515625 L 30.953125 -33.8125 L 13.265625 -33.8125 L 13.265625 -23.078125 L 29.3125 -23.078125 L 29.3125 -16.453125 L 13.265625 -16.453125 L 13.265625 0 L 5.265625 0 L 5.265625 -40.515625 Z M 30.953125 -40.515625 "/></g></g></g><g fill="#000000" fill-opacity="1"><g transform="translate(32.389831, 62.044178)"><g><path d="M 22.078125 0.578125 C 18.367188 0.578125 15.097656 -0.175781 12.265625 -1.6875 C 9.429688 -3.207031 7.207031 -5.519531 5.59375 -8.625 C 3.988281 -11.738281 3.1875 -15.613281 3.1875 -20.25 C 3.1875 -24.894531 3.988281 -28.769531 5.59375 -31.875 C 7.207031 -34.988281 9.429688 -37.300781 12.265625 -38.8125 C 15.097656 -40.332031 18.367188 -41.09375 22.078125 -41.09375 C 25.796875 -41.09375 29.066406 -40.335938 31.890625 -38.828125 C 34.722656 -37.328125 36.9375 -35.015625 38.53125 -31.890625 C 40.125 -28.773438 40.921875 -24.894531 40.921875 -20.25 C 40.921875 -15.613281 40.125 -11.734375 38.53125 -8.609375 C 36.9375 -5.492188 34.722656 -3.179688 31.890625 -1.671875 C 29.066406 -0.171875 25.796875 0.578125 22.078125 0.578125 Z M 22.078125 -6.375 C 25.515625 -6.375 28.140625 -7.476562 29.953125 -9.6875 C 31.765625 -11.894531 32.671875 -15.414062 32.671875 -20.25 C 32.671875 -25.09375 31.765625 -28.625 29.953125 -30.84375 C 28.140625 -33.0625 25.515625 -34.171875 22.078125 -34.171875 C 18.628906 -34.171875 15.992188 -33.0625 14.171875 -30.84375 C 12.347656 -28.625 11.4375 -25.09375 11.4375 -20.25 C 11.4375 -15.414062 12.347656 -11.894531 14.171875 -9.6875 C 15.992188 -7.476562 18.628906 -6.375 22.078125 -6.375 Z M 22.078125 -6.375 "/></g></g><g transform="translate(76.527599, 62.044178)"><g><path d="M 22.078125 0.578125 C 18.367188 0.578125 15.097656 -0.175781 12.265625 -1.6875 C 9.429688 -3.207031 7.207031 -5.519531 5.59375 -8.625 C 3.988281 -11.738281 3.1875 -15.613281 3.1875 -20.25 C 3.1875 -24.894531 3.988281 -28.769531 5.59375 -31.875 C 7.207031 -34.988281 9.429688 -37.300781 12.265625 -38.8125 C 15.097656 -40.332031 18.367188 -41.09375 22.078125 -41.09375 C 25.796875 -41.09375 29.066406 -40.335938 31.890625 -38.828125 C 34.722656 -37.328125 36.9375 -35.015625 38.53125 -31.890625 C 40.125 -28.773438 40.921875 -24.894531 40.921875 -20.25 C 40.921875 -15.613281 40.125 -11.734375 38.53125 -8.609375 C 36.9375 -5.492188 34.722656 -3.179688 31.890625 -1.671875 C 29.066406 -0.171875 25.796875 0.578125 22.078125 0.578125 Z M 22.078125 -6.375 C 25.515625 -6.375 28.140625 -7.476562 29.953125 -9.6875 C 31.765625 -11.894531 32.671875 -15.414062 32.671875 -20.25 C 32.671875 -25.09375 31.765625 -28.625 29.953125 -30.84375 C 28.140625 -33.0625 25.515625 -34.171875 22.078125 -34.171875 C 18.628906 -34.171875 15.992188 -33.0625 14.171875 -30.84375 C 12.347656 -28.625 11.4375 -25.09375 11.4375 -20.25 C 11.4375 -15.414062 12.347656 -11.894531 14.171875 -9.6875 C 15.992188 -7.476562 18.628906 -6.375 22.078125 -6.375 Z M 22.078125 -6.375 "/></g></g><g transform="translate(120.665367, 62.044178)"><g><path d="M 19.84375 -40.515625 C 26.414062 -40.515625 31.429688 -38.8125 34.890625 -35.40625 C 38.359375 -32.007812 40.09375 -26.957031 40.09375 -20.25 C 40.09375 -13.5625 38.359375 -8.515625 34.890625 -5.109375 C 31.429688 -1.703125 26.414062 0 19.84375 0 L 5.265625 0 L 5.265625 -40.515625 Z M 19.375 -6.734375 C 23.539062 -6.734375 26.660156 -7.800781 28.734375 -9.9375 C 30.804688 -12.070312 31.84375 -15.507812 31.84375 -20.25 C 31.84375 -25 30.804688 -28.441406 28.734375 -30.578125 C 26.660156 -32.710938 23.539062 -33.78125 19.375 -33.78125 L 13.265625 -33.78125 L 13.265625 -6.734375 Z M 19.375 -6.734375 "/></g></g><g transform="translate(163.971915, 62.044178)"><g><path d="M 17.953125 0.578125 C 15.148438 0.578125 12.648438 0.234375 10.453125 -0.453125 C 8.265625 -1.148438 6.441406 -2.0625 4.984375 -3.1875 C 3.523438 -4.3125 2.410156 -5.550781 1.640625 -6.90625 L 6.046875 -12.28125 L 6.734375 -12.28125 C 7.953125 -10.46875 9.5 -9.023438 11.375 -7.953125 C 13.25 -6.878906 15.441406 -6.34375 17.953125 -6.34375 C 20.097656 -6.34375 21.710938 -6.796875 22.796875 -7.703125 C 23.890625 -8.609375 24.4375 -9.851562 24.4375 -11.4375 C 24.4375 -12.40625 24.257812 -13.210938 23.90625 -13.859375 C 23.5625 -14.503906 22.984375 -15.054688 22.171875 -15.515625 C 21.359375 -15.972656 20.257812 -16.367188 18.875 -16.703125 L 13.65625 -17.90625 C 10.019531 -18.726562 7.3125 -20.101562 5.53125 -22.03125 C 3.75 -23.96875 2.859375 -26.476562 2.859375 -29.5625 C 2.859375 -31.851562 3.429688 -33.867188 4.578125 -35.609375 C 5.722656 -37.347656 7.390625 -38.695312 9.578125 -39.65625 C 11.765625 -40.613281 14.378906 -41.09375 17.421875 -41.09375 C 20.546875 -41.09375 23.222656 -40.679688 25.453125 -39.859375 C 27.679688 -39.035156 29.5625 -37.773438 31.09375 -36.078125 L 27.125 -30.640625 L 26.4375 -30.640625 C 25.289062 -31.847656 23.976562 -32.75 22.5 -33.34375 C 21.019531 -33.945312 19.328125 -34.25 17.421875 -34.25 C 15.222656 -34.25 13.550781 -33.859375 12.40625 -33.078125 C 11.269531 -32.304688 10.703125 -31.238281 10.703125 -29.875 C 10.703125 -28.59375 11.101562 -27.570312 11.90625 -26.8125 C 12.707031 -26.0625 14.097656 -25.472656 16.078125 -25.046875 L 21.390625 -23.9375 C 25.328125 -23.101562 28.179688 -21.691406 29.953125 -19.703125 C 31.722656 -17.722656 32.609375 -15.132812 32.609375 -11.9375 C 32.609375 -9.40625 32.0625 -7.203125 30.96875 -5.328125 C 29.882812 -3.453125 28.242188 -2 26.046875 -0.96875 C 23.847656 0.0625 21.148438 0.578125 17.953125 0.578125 Z M 17.953125 0.578125 "/></g></g></g></g></g></svg>